<?xml version="1.0" standalone="no"?>
<!DOCTYPE svg PUBLIC "-//W3C//DTD SVG 20010904//EN"
 "http://www.w3.org/TR/2001/REC-SVG-20010904/DTD/svg10.dtd">
<svg version="1.0" xmlns="http://www.w3.org/2000/svg"
 width="495.000000pt" height="504.000000pt" viewBox="0 0 495.000000 504.000000"
 preserveAspectRatio="xMidYMid meet">

<g transform="translate(0.000000,504.000000) scale(0.100000,-0.100000)"
fill="#000000" stroke="none">
<path d="M2254 3325 c-2 -5 -12 -56 -22 -112 -13 -70 -15 -103 -8 -104 6 0 1
-4 -12 -9 -12 -5 -72 -8 -132 -7 -77 1 -111 -2 -114 -10 -5 -13 26 -21 94 -22
25 -1 57 -4 73 -7 19 -4 29 -1 33 10 5 12 10 13 26 5 11 -6 29 -9 39 -6 10 3
17 2 15 -1 -2 -4 69 -6 157 -4 134 3 165 7 181 20 15 13 17 14 11 2 -7 -13 -6
-13 7 -2 12 10 17 10 20 1 2 -7 30 -14 62 -17 37 -3 57 -1 53 5 -6 10 24 9
115 -2 29 -3 60 0 80 8 33 13 33 14 11 26 -17 8 -29 9 -43 1 -25 -13 -70 -3
-70 17 0 8 -4 12 -9 9 -13 -8 -5 37 13 71 8 17 23 34 33 38 23 10 64 6 81 -8
18 -15 13 -95 -7 -102 -14 -6 -14 -7 1 -16 20 -11 50 -1 45 15 -2 6 3 17 10
24 8 8 11 23 7 34 -4 13 -2 18 4 14 7 -4 9 2 7 15 -3 13 -10 26 -17 31 -7 4
-9 8 -3 8 5 0 0 7 -13 15 -27 19 -95 17 -140 -4 -22 -10 -41 -31 -57 -62 -21
-44 -22 -48 -7 -65 10 -10 11 -14 3 -7 -11 10 -18 7 -33 -12 -16 -20 -26 -24
-55 -20 -45 6 -52 16 -42 63 14 69 21 85 30 70 7 -10 9 -9 9 3 0 21 -34 31
-51 15 -9 -8 -10 -8 -5 2 4 6 2 12 -5 12 -6 0 -9 -8 -6 -20 3 -11 2 -20 -2
-20 -8 0 -37 -100 -33 -113 1 -5 -2 -6 -8 -2 -5 3 -10 3 -10 -2 0 -4 -54 -7
-119 -5 -73 2 -128 -1 -140 -7 -14 -8 -22 -8 -26 0 -4 6 -13 8 -20 6 -9 -4
-10 4 -5 31 16 75 30 138 36 161 6 19 4 22 -7 16 -11 -6 -12 -5 -1 6 6 7 12
16 12 20 0 12 -42 6 -46 -6z m710 -76 c-3 -5 -10 -7 -15 -3 -5 3 -7 10 -3 15
3 5 10 7 15 3 5 -3 7 -10 3 -15z"/>
<path d="M3236 3324 c-9 -23 -8 -24 12 -17 13 5 12 2 -4 -13 -15 -13 -25 -42
-34 -93 -8 -40 -19 -79 -26 -86 -7 -7 -11 -15 -9 -17 3 -2 -18 -3 -46 0 -35 2
-49 0 -45 -7 4 -6 2 -11 -3 -11 -6 0 -11 -5 -11 -11 0 -11 17 -10 143 5 15 1
27 -1 27 -6 0 -4 24 -8 53 -8 40 0 48 3 37 11 -12 9 -11 10 8 6 12 -3 20 -1
16 4 -3 5 -1 9 5 9 5 0 12 -4 15 -9 11 -17 83 -23 126 -10 34 10 43 10 50 -1
14 -23 95 -7 130 26 25 24 46 76 41 99 -1 3 6 19 14 35 9 17 12 30 7 30 -5 0
-14 -12 -21 -26 -6 -15 -14 -24 -18 -21 -3 4 0 13 6 21 7 8 10 19 7 24 -7 11
26 12 40 1 6 -5 11 -3 11 5 0 16 -35 26 -58 17 -14 -6 -20 -24 -23 -73 0 -14
-5 -24 -10 -21 -5 3 -6 0 -4 -8 3 -8 11 -13 17 -11 7 1 10 -2 6 -8 -3 -6 -10
-8 -15 -5 -11 7 -22 -24 -13 -37 3 -6 1 -8 -5 -4 -6 3 -13 2 -17 -4 -3 -5 -24
-10 -45 -10 -33 0 -38 3 -33 17 4 9 2 14 -3 10 -6 -4 -6 15 1 49 7 36 18 59
33 70 28 19 20 34 -19 34 -23 0 -32 -6 -40 -27 -5 -14 -7 -33 -5 -40 3 -8 1
-11 -4 -8 -8 5 -15 -31 -11 -58 2 -12 -32 -45 -49 -47 -32 -5 -57 1 -58 13 0
6 -3 24 -5 39 -2 15 0 25 4 22 5 -3 9 4 9 16 0 27 18 62 29 55 5 -2 11 3 14
14 3 14 -2 18 -29 19 -23 1 -37 -4 -43 -16 -13 -25 -17 -65 -7 -81 6 -9 5 -12
-1 -8 -8 5 -20 -16 -23 -40 -1 -15 -40 -38 -60 -36 -14 1 -31 2 -38 2 -17 1
-13 109 5 164 8 21 11 43 8 48 -4 5 -1 9 6 9 18 0 2 13 -20 17 -11 1 -22 -4
-25 -13z m161 -126 c-3 -8 -6 -5 -6 6 -1 11 2 17 5 13 3 -3 4 -12 1 -19z m193
-118 c0 -5 -2 -10 -4 -10 -3 0 -8 5 -11 10 -3 6 -1 10 4 10 6 0 11 -4 11 -10z"/>
<path d="M3137 3313 c-9 -2 -15 -8 -12 -13 3 -5 0 -12 -6 -16 -7 -4 -9 -3 -6
3 4 6 1 13 -6 16 -8 3 -14 -3 -14 -14 -1 -10 2 -19 6 -19 4 0 7 -18 6 -40 0
-22 -3 -40 -7 -40 -13 0 -9 -27 6 -39 20 -17 36 14 38 73 1 24 6 42 10 40 5
-3 7 8 6 25 -1 17 -2 30 -3 30 0 -1 -8 -3 -18 -6z"/>
<path d="M1956 3151 c-3 -5 -5 -21 -4 -36 2 -23 4 -24 14 -10 9 12 13 13 17 3
3 -9 7 -8 12 5 14 33 -21 67 -39 38z"/>
<path d="M2414 2381 c-36 -22 -42 -30 -54 -71 -7 -25 -3 -36 27 -74 30 -38 33
-48 23 -66 -14 -26 -36 -21 -33 9 2 17 -3 21 -27 21 -24 0 -33 -6 -40 -26 -13
-32 -13 -30 6 -48 17 -18 70 -21 108 -6 30 11 66 65 66 98 0 13 -10 33 -23 45
-38 37 -48 54 -41 71 9 23 34 20 34 -4 0 -16 7 -20 30 -20 24 0 31 5 36 27 6
20 2 31 -16 45 -29 23 -57 23 -96 -1z"/>
<path d="M2726 2293 c-10 -27 -21 -57 -26 -68 -15 -38 -40 -105 -40 -111 0 -3
12 -4 27 -2 25 3 31 12 65 103 20 55 37 106 37 113 1 6 -10 12 -23 12 -19 0
-27 -9 -40 -47z"/>
<path d="M3516 2328 c-9 -30 -48 -145 -56 -163 -21 -50 -20 -55 6 -55 17 0 27
8 34 24 15 39 33 44 28 7 -4 -27 -2 -31 18 -31 21 0 24 6 30 61 5 42 14 69 30
89 29 33 30 40 6 40 -9 0 -23 -9 -30 -20 -28 -45 -39 -15 -16 44 5 12 0 16
-20 16 -15 0 -28 -6 -30 -12z"/>
<path d="M3237 2300 c-9 -11 -17 -29 -17 -40 0 -11 -9 -43 -20 -72 -27 -72
-26 -78 15 -78 33 0 35 2 29 25 -3 14 -2 31 4 38 5 6 13 27 17 45 3 18 15 36
24 42 13 6 17 17 14 35 -7 31 -41 34 -66 5z"/>
<path d="M2574 2281 c-37 -23 -50 -40 -38 -51 13 -12 54 7 54 25 0 8 7 15 15
15 8 0 15 -9 15 -20 0 -20 -23 -37 -75 -55 -30 -10 -61 -57 -50 -74 3 -6 33
-9 67 -8 l62 2 27 75 c24 68 25 77 11 93 -20 22 -49 22 -88 -2z m6 -130 c-6
-12 -15 -21 -20 -21 -17 0 -11 39 8 49 21 12 27 -1 12 -28z"/>
<path d="M2838 2284 c-29 -15 -52 -47 -41 -58 15 -15 44 -4 53 19 10 27 30 34
30 10 0 -21 -37 -52 -71 -59 -21 -4 -34 -15 -44 -38 -7 -18 -11 -36 -9 -40 3
-5 34 -8 68 -8 l63 0 18 58 c10 31 22 67 26 79 17 45 -38 67 -93 37z m12 -116
c0 -22 -17 -41 -29 -34 -8 5 -8 13 -1 27 12 21 30 26 30 7z"/>
<path d="M2952 2208 c-18 -50 -29 -94 -27 -98 3 -5 13 -6 23 -3 11 3 28 31 46
79 28 73 41 92 53 80 6 -6 -15 -82 -27 -101 -11 -16 -19 -55 -12 -59 16 -9 52
15 52 33 0 11 5 23 10 26 6 3 10 14 10 24 0 24 29 81 41 81 14 0 11 -25 -11
-82 -26 -68 -25 -78 3 -78 20 0 27 11 52 85 33 98 28 117 -25 95 -19 -8 -35
-9 -38 -4 -4 5 -32 10 -63 11 l-56 3 -31 -92z"/>
<path d="M3329 2273 c-34 -89 -41 -111 -46 -136 l-5 -28 63 3 63 3 32 80 c40
97 41 105 10 105 -25 0 -26 -2 -66 -112 -12 -32 -25 -58 -29 -58 -18 0 -18 15
4 68 40 99 40 102 10 102 -19 0 -28 -7 -36 -27z"/>
<path d="M3170 2000 c-11 -11 -20 -31 -20 -45 0 -20 5 -25 24 -25 24 0 54 26
42 37 -3 4 -12 -2 -20 -12 -16 -23 -27 -8 -15 23 7 18 14 22 29 17 14 -5 20
-2 20 9 0 23 -36 20 -60 -4z"/>
<path d="M3267 2008 c-9 -7 -20 -28 -23 -45 -6 -30 -4 -33 19 -33 30 0 47 19
50 56 2 32 -18 42 -46 22z m18 -38 c-4 -12 -9 -19 -12 -17 -3 3 -2 15 2 27 4
12 9 19 12 17 3 -3 2 -15 -2 -27z"/>
<path d="M3351 2006 c-4 -6 -13 -26 -19 -43 -9 -26 -8 -33 2 -33 7 0 17 14 22
32 5 17 15 33 23 36 13 4 11 -9 -6 -55 -3 -7 -1 -13 5 -13 6 0 16 16 22 35 12
36 30 48 30 19 0 -8 -5 -24 -10 -35 -8 -15 -7 -19 3 -19 8 0 17 10 20 23 3 12
8 31 12 43 6 18 2 20 -45 20 -28 0 -55 -5 -59 -10z"/>
<path d="M3670 1905 c-25 -30 32 -124 76 -125 33 0 84 66 84 110 0 33 -28 36
-60 5 l-30 -28 -20 26 c-25 31 -33 33 -50 12z"/>
</g>
</svg>
