<svg width="32" height="32" viewBox="0 0 32 32" fill="none" xmlns="http://www.w3.org/2000/svg">
<path d="M14.6667 20.0003V17.3337C13.6058 17.3337 12.5884 16.9122 11.8383 16.1621C11.0881 15.4119 10.6667 14.3945 10.6667 13.3337C10.6667 12.2728 11.0881 11.2554 11.8383 10.5052C12.5884 9.75509 13.6058 9.33366 14.6667 9.33366V8.00033C14.6667 7.6467 14.8072 7.30756 15.0572 7.05752C15.3073 6.80747 15.6464 6.66699 16 6.66699C16.3536 6.66699 16.6928 6.80747 16.9428 7.05752C17.1929 7.30756 17.3334 7.6467 17.3334 8.00033V9.33366H17.3627C18.4158 9.33366 19.4257 9.752 20.1704 10.4966C20.915 11.2413 21.3334 12.2512 21.3334 13.3043C21.3334 13.6579 21.1929 13.9971 20.9428 14.2471C20.6928 14.4972 20.3536 14.6377 20 14.6377C19.6464 14.6377 19.3073 14.4972 19.0572 14.2471C18.8072 13.9971 18.6667 13.6579 18.6667 13.3043C18.6667 12.9585 18.5293 12.6268 18.2848 12.3823C18.0402 12.1377 17.7085 12.0003 17.3627 12.0003H17.3334V14.667C18.3942 14.667 19.4116 15.0884 20.1618 15.8386C20.9119 16.5887 21.3334 17.6061 21.3334 18.667C21.3334 19.7279 20.9119 20.7453 20.1618 21.4954C19.4116 22.2456 18.3942 22.667 17.3334 22.667V24.0003C17.3334 24.3539 17.1929 24.6931 16.9428 24.9431C16.6928 25.1932 16.3536 25.3337 16 25.3337C15.6464 25.3337 15.3073 25.1932 15.0572 24.9431C14.8072 24.6931 14.6667 24.3539 14.6667 24.0003V22.667H14.5987C13.5559 22.667 12.5557 22.2527 11.8183 21.5153C11.0809 20.7779 10.6667 19.7778 10.6667 18.735C10.6667 18.3814 10.8072 18.0422 11.0572 17.7922C11.3073 17.5421 11.6464 17.4017 12 17.4017C12.3536 17.4017 12.6928 17.5421 12.9428 17.7922C13.1929 18.0422 13.3334 18.3814 13.3334 18.735C13.3337 19.0705 13.4671 19.3921 13.7044 19.6293C13.9416 19.8665 14.2632 20 14.5987 20.0003H14.6667ZM17.3334 20.0003C17.687 20.0003 18.0261 19.8598 18.2762 19.6098C18.5262 19.3598 18.6667 19.0206 18.6667 18.667C18.6667 18.3134 18.5262 17.9742 18.2762 17.7242C18.0261 17.4741 17.687 17.3337 17.3334 17.3337V20.0003ZM14.6667 12.0003C14.3131 12.0003 13.9739 12.1408 13.7239 12.3908C13.4738 12.6409 13.3334 12.98 13.3334 13.3337C13.3334 13.6873 13.4738 14.0264 13.7239 14.2765C13.9739 14.5265 14.3131 14.667 14.6667 14.667V12.0003ZM16 29.3337C8.63602 29.3337 2.66669 23.3643 2.66669 16.0003C2.66669 8.63633 8.63602 2.66699 16 2.66699C23.364 2.66699 29.3334 8.63633 29.3334 16.0003C29.3334 23.3643 23.364 29.3337 16 29.3337ZM16 26.667C18.829 26.667 21.5421 25.5432 23.5425 23.5428C25.5429 21.5424 26.6667 18.8293 26.6667 16.0003C26.6667 13.1713 25.5429 10.4582 23.5425 8.45785C21.5421 6.45747 18.829 5.33366 16 5.33366C13.171 5.33366 10.4579 6.45747 8.45755 8.45785C6.45716 10.4582 5.33335 13.1713 5.33335 16.0003C5.33335 18.8293 6.45716 21.5424 8.45755 23.5428C10.4579 25.5432 13.171 26.667 16 26.667Z" fill="#211F2A"/>
</svg>
